<?xml version="1.0" encoding="UTF-8"?><svg id="_레이어_2" xmlns="http://www.w3.org/2000/svg" xmlns:xlink="http://www.w3.org/1999/xlink" viewBox="0 0 113.56 113.04"><defs><linearGradient id="_무제_그라디언트_222" x1="56.78" y1=".76" x2="56.78" y2="110.94" gradientUnits="userSpaceOnUse"><stop offset="0" stop-color="#ea5e84"/><stop offset=".08" stop-color="#e65f8d"/><stop offset=".22" stop-color="#dc64a7"/><stop offset=".39" stop-color="#cc6cd0"/><stop offset=".48" stop-color="#c371ea"/><stop offset=".57" stop-color="#be73ea"/><stop offset=".66" stop-color="#b27aea"/><stop offset=".75" stop-color="#9e86eb"/><stop offset=".84" stop-color="#8197ec"/><stop offset=".93" stop-color="#5dacee"/><stop offset="1" stop-color="#3ebff0"/></linearGradient></defs><path d="M87.42,98.58l-.12.1c-8.61,6.14-19.14,9.76-30.52,9.76-29.05,0-52.59-23.55-52.59-52.59S27.73,3.26,56.78,3.26s52.59,23.55,52.59,52.59c0,11.7-3.82,22.5-10.28,31.24l-.51.58M30.94,33.3l-.3.3c-5.07,6-8.12,13.75-8.12,22.22,0,19.02,15.42,34.44,34.44,34.44s34.44-15.42,34.44-34.44-15.42-34.44-34.44-34.44c-5.89,0-12.27,1.84-17.11,4.44M34.07,24.33c-3.23,0-5.85,2.62-5.85,5.85s2.62,5.85,5.85,5.85,5.85-2.62,5.85-5.85-2.62-5.85-5.85-5.85ZM92.69,85.07c-4.31,0-7.8,3.49-7.8,7.8s3.49,7.8,7.8,7.8,7.8-3.49,7.8-7.8-3.49-7.8-7.8-7.8Z" style="fill:none; stroke:url(#_무제_그라디언트_222); stroke-miterlimit:10; stroke-width:5px;"/></svg>