<?xml version="1.0" encoding="UTF-8"?><svg id="_레이어_3" xmlns="http://www.w3.org/2000/svg" viewBox="0 0 48.6 48.6"><path d="M17.46,1.97c.13-.31.06-.66-.17-.9-.23-.24-.58-.32-.9-.2C7.27,4.32.81,13.16.81,23.49c0,13.41,10.89,24.3,24.3,24.3,10.33,0,19.16-6.46,22.62-15.58.12-.31.04-.67-.2-.9-.24-.23-.59-.3-.9-.17-2.5,1.03-5.24,1.56-8.11,1.56-12.49,0-22.63-10.14-22.63-22.63,0-2.87.53-5.61,1.56-8.11h0ZM15.24,3.18c-.68,2.18-1.03,4.5-1.03,6.9,0,13.41,10.89,24.3,24.3,24.3,2.4,0,4.72-.35,6.9-1.03-3.62,7.56-11.36,12.76-20.31,12.76-12.49,0-22.63-10.14-22.63-22.63C2.49,14.54,7.69,6.8,15.24,3.18h0Z" style="fill:#feaac3; fill-rule:evenodd; stroke-width:0px;"/></svg>