<svg width="27" height="27" viewBox="0 0 27 27" fill="none" xmlns="http://www.w3.org/2000/svg">
<path id="Vector" fill-rule="evenodd" clip-rule="evenodd" d="M10.1249 2.025C5.65175 2.025 2.02499 5.65177 2.02499 10.125C2.02499 14.5982 5.65175 18.225 10.1249 18.225C12.3622 18.225 14.3859 17.3193 15.852 15.8519C17.3193 14.3859 18.225 12.3622 18.225 10.1249C18.225 5.6517 14.5981 2.025 10.1249 2.025ZM0 10.125C0 4.53262 4.5326 0 10.1249 0C15.7173 0 20.2499 4.53262 20.2499 10.125C20.2499 12.556 19.3916 14.7879 17.9652 16.5321L26.7034 25.2716C27.0989 25.6671 27.0989 26.3078 26.7034 26.7034C26.3079 27.0989 25.6671 27.0989 25.2716 26.7034L16.5321 17.9652C14.7879 19.3916 12.556 20.2499 10.125 20.2499C4.5327 20.2499 0 15.7174 0 10.125Z" fill="black" fill-opacity="0.5"/>
</svg>
